<svg xmlns="http://www.w3.org/2000/svg" width="111" height="30" viewBox="0 0 111 30" fill="none" xmlns:v="https://vecta.io/nano"><path d="M57.597 17.208c2.182 0 3.826 1.573 3.826 4.48v6.409a.19.19 0 0 1-.191.191H59.39a.19.19 0 0 1-.191-.191v-6.038c0-1.76-.914-2.875-2.565-2.875-1.67 0-2.654 1.224-2.654 2.875v6.038a.19.19 0 0 1-.191.191h-1.844a.19.19 0 0 1-.191-.191v-10.52a.19.19 0 0 1 .191-.191h1.697a.19.19 0 0 1 .191.191v1.792c0 .102.089.162.16.162a.16.16 0 0 0 .145-.091c.538-1.184 1.536-2.233 3.458-2.233zm-9.367-2.102c.687 0 1.244-.557 1.244-1.243s-.557-1.243-1.244-1.243-1.244.556-1.244 1.243.557 1.243 1.244 1.243zm-.921 13.179a.19.19 0 0 1-.191-.191V17.577a.19.19 0 0 1 .191-.191h1.846c.106 0 .187.085.187.191v10.517c0 .106-.081.191-.187.191h-1.846zm-2.875-5.607a.19.19 0 0 0 .191-.191v-1.841a.19.19 0 0 0-.191-.191l-6.133.002a.38.38 0 0 1-.381-.381v-4.853a.38.38 0 0 1 .381-.381h6.924a.19.19 0 0 0 .191-.191v-1.843a.19.19 0 0 0-.191-.191h-8.768c-.421 0-.763.341-.763.762v14.714a.19.19 0 0 0 .191.191h1.844a.19.19 0 0 0 .191-.191v-5.036a.38.38 0 0 1 .381-.381h6.133zm38.702-5.47c2.182 0 3.826 1.573 3.826 4.48v6.409a.19.19 0 0 1-.191.191H84.93a.19.19 0 0 1-.191-.191v-6.038c0-1.76-.914-2.875-2.565-2.875-1.671 0-2.654 1.224-2.654 2.875v6.038a.19.19 0 0 1-.191.191h-1.844a.19.19 0 0 1-.191-.191v-10.52a.19.19 0 0 1 .191-.191h1.697a.19.19 0 0 1 .191.191v1.792c0 .102.089.162.16.162a.16.16 0 0 0 .145-.091c.54-1.184 1.537-2.233 3.458-2.233zm5.725 5.628c0 3.157 2.562 5.719 5.723 5.719 2.171 0 3.522-1.152 4.219-1.939.068-.077.066-.192-.006-.264l-1.159-1.136c-.07-.07-.193-.075-.27 0-.413.4-1.257 1.207-2.782 1.207-1.891 0-3.526-1.581-3.526-3.588 0-1.939 1.565-3.578 3.526-3.578 1.506 0 2.373.798 2.786 1.196.079.075.2.07.27 0l1.155-1.134a.19.19 0 0 0 .006-.264c-.697-.787-2.048-1.939-4.219-1.939-3.16 0-5.723 2.561-5.723 5.719zm16.763-5.719c-3.16 0-5.487 2.56-5.487 5.719s2.412 5.719 5.699 5.719c1.761 0 3.139-.621 4.047-1.349.079-.064.098-.177.037-.262l-.828-1.158c-.063-.085-.182-.104-.266-.043-.452.292-1.399.903-2.832.903-2.427 0-3.537-2.073-3.537-2.697a.19.19 0 0 1 .19-.19h7.566a.77.77 0 0 0 .778-.743c.153-2.982-1.529-5.898-5.367-5.898zm2.867 4.961h-5.876a.19.19 0 0 1-.19-.191c0-.673.849-2.825 3.258-2.825 2.25 0 3.19 1.826 3.19 2.635a.38.38 0 0 1-.382.381zm-33.798-4.691h-1.701a.19.19 0 0 0-.191.191v1.633a.16.16 0 0 1-.16.162c-.067 0-.117-.04-.149-.091-.662-1.081-1.963-2.171-3.909-2.171-2.482 0-5.238 2.263-5.238 5.723s2.737 5.723 5.238 5.723c2.001 0 3.249-1.092 3.913-2.173a.16.16 0 0 1 .145-.089c.087 0 .162.07.162.159v1.639a.19.19 0 0 0 .191.191h1.701a.19.19 0 0 0 .191-.191V17.576c-.002-.102-.087-.189-.193-.189zm-5.561 8.993c-1.944 0-3.52-1.588-3.52-3.546s1.576-3.546 3.52-3.546 3.52 1.588 3.52 3.546-1.576 3.546-3.52 3.546z" fill="#0e2638"/><path d="M28.961 20.324l-1.529-1.53 1.529-1.528c1.21-1.209 1.21-3.178 0-4.387l-5.374-5.37V4.972a1.73 1.73 0 0 0-1.484-1.722 1.71 1.71 0 0 0-1.352.409 1.7 1.7 0 0 0-.432.585l-3.254-3.239a3.02 3.02 0 0 0-4.257.002L.909 12.879c-1.21 1.209-1.21 3.178 0 4.387l1.533 1.531-1.533 1.528a3.1 3.1 0 0 0 0 4.387l4.332 4.329c.551.551 1.276.907 2.054.953.9.055 1.756-.272 2.388-.904l4.306-4.291c.53-.528 1.389-.528 1.918.002l4.285 4.289c.632.632 1.487.956 2.388.904.778-.047 1.503-.404 2.054-.953l4.332-4.329a3.11 3.11 0 0 0-.004-4.389zM2.232 15.942c-.481-.481-.481-1.262 0-1.743L13.975 2.463c.53-.53 1.387-.53 1.918 0l11.743 11.736c.481.481.481 1.262 0 1.743l-1.529 1.528-9.023-9.025a3.02 3.02 0 0 0-4.26-.004l-9.059 9.035-1.533-1.533zm22.555 2.85l-1.499 1.498a1.29 1.29 0 0 1-.823.389c-.359.023-.7-.108-.951-.358l-4.447-4.438c-1.176-1.173-3.082-1.173-4.258 0L8.361 20.32c-.232.232-.542.36-.872.36s-.64-.128-.872-.36L5.09 18.794l8.904-8.891c.531-.53 1.389-.528 1.918.002l8.876 8.888zm2.85 4.597l-4.351 4.348a1.29 1.29 0 0 1-.823.389c-.359.023-.7-.108-.951-.358l-4.449-4.436c-1.176-1.173-3.081-1.173-4.257 0l-4.449 4.436c-.251.251-.593.381-.951.358a1.29 1.29 0 0 1-.823-.389l-4.351-4.348c-.481-.481-.481-1.262 0-1.743l1.531-1.53 1.478 1.477c.551.551 1.276.907 2.054.953.9.055 1.756-.272 2.388-.904l4.304-4.295c.53-.528 1.389-.528 1.918.002l4.285 4.293c.632.632 1.487.956 2.388.904.778-.047 1.503-.404 2.054-.953l1.48-1.479 1.529 1.532c.479.481.479 1.262-.002 1.743z" fill="#007c80"/><path d="M83.003 4.889c-.053 0-.096-.043-.096-.096V3.661c0-.053.043-.096.096-.096h3.307c.227 0 .374.185.381.366l.002.383c-.064 2.241-1.438 3.81-3.651 3.81-2.246 0-3.875-1.796-3.875-4.038S80.834 0 83.078 0c1.763 0 2.692 1.107 2.745 1.152.038.036.04.096.004.134l-.84.89c-.036.038-.096.04-.134.004-.045-.047-.685-.792-1.772-.792-1.465 0-2.475 1.234-2.475 2.697s1.017 2.661 2.45 2.661c1.142 0 1.958-.605 2.154-1.599l.01-.07a.19.19 0 0 0-.191-.191h-2.025v.002zm6.423 3.176c-1.07 0-1.872-.783-1.872-2.182V2.612c0-.053.043-.096.096-.096h1.221c.053 0 .096.043.096.096v2.929c0 .854.379 1.266 1.076 1.266.666 0 1.123-.443 1.123-1.266V2.614c0-.053.043-.096.096-.096h1.221c.053 0 .096.043.096.096v5.268c0 .053-.043.096-.096.096h-1.121c-.053 0-.096-.043-.096-.096v-.971c0-.053-.043-.096-.096-.096s-.085.032-.098.083c-.132.455-.546 1.168-1.646 1.168zM48.64 2.382c-1.584 0-2.867 1.283-2.867 2.867s1.284 2.865 2.867 2.865 2.867-1.283 2.867-2.865a2.87 2.87 0 0 0-2.867-2.867zm0 4.395c-.825 0-1.493-.685-1.493-1.53s.668-1.53 1.493-1.53 1.493.685 1.493 1.53-.668 1.53-1.493 1.53zm-3.992-3.039c-.344 0-.689.17-.883.57-.136.279-.181.668-.181 1.188l.002 2.384c0 .053-.043.096-.096.096h-1.219c-.053 0-.096-.043-.096-.096V2.612c0-.053.043-.096.096-.096h1.121c.053 0 .096.043.096.096v.971c0 .053.043.096.096.096s.083-.036.098-.087c.096-.33.247-.732.557-.988a.93.93 0 0 1 .596-.204 1.03 1.03 0 0 1 .57.17c.026.017.041.045.041.079v1.194c0 .053-.043.096-.096.096-.019 0-.038-.008-.053-.017-.166-.094-.376-.185-.649-.185zm23.255 0c-.344 0-.689.17-.883.57-.136.279-.181.668-.181 1.188l.002 2.384c0 .053-.043.096-.096.096h-1.221c-.053 0-.096-.043-.096-.096V2.612c0-.053.043-.096.096-.096h1.121c.053 0 .096.043.096.096v.971c0 .053.043.096.096.096s.083-.036.098-.087c.096-.33.247-.732.557-.988.17-.14.383-.204.597-.204a1.03 1.03 0 0 1 .57.17c.026.017.041.045.041.079v1.194c0 .053-.043.096-.096.096-.019 0-.038-.008-.053-.017a1.27 1.27 0 0 0-.647-.185zm28.364 0c-.343 0-.689.17-.883.57-.136.279-.181.668-.181 1.188l.002 2.384c0 .053-.043.096-.096.096h-1.221c-.053 0-.096-.043-.096-.096V2.612c0-.053.043-.096.096-.096h1.121c.053 0 .096.043.096.096v.971c0 .053.043.096.096.096s.083-.036.098-.087c.096-.33.247-.732.557-.988.17-.14.383-.204.597-.204a1.03 1.03 0 0 1 .57.17c.026.017.041.045.041.079v1.194c0 .053-.043.096-.096.096-.019 0-.038-.008-.053-.017-.164-.094-.374-.185-.648-.185zm3.426 4.327c-1.07 0-1.873-.783-1.873-2.182V2.612c0-.053.043-.096.096-.096h1.221c.053 0 .096.043.096.096v2.929c0 .854.379 1.266 1.076 1.266.666 0 1.123-.443 1.123-1.266V2.614c0-.053.044-.096.097-.096h1.221c.053 0 .096.043.096.096v5.268c0 .053-.043.096-.096.096h-1.121c-.053 0-.097-.043-.097-.096v-.971c0-.053-.043-.096-.096-.096s-.085.032-.098.083c-.132.455-.546 1.168-1.646 1.168zM78.329 2.518h-1.278c-.042 0-.076.026-.089.062l-.772 2.196-.489 1.516c-.009.038-.045.072-.093.072-.041 0-.081-.026-.093-.072-.13-.483-.37-1.132-.513-1.522l-.8-2.192c-.013-.036-.049-.062-.089-.062h-1.28c-.053 0-.096.043-.096.096 0 .013.002.025.008.036l2.118 5.327-.829 2.071c-.004.011-.007.023-.007.036 0 .053.043.096.096.096h1.24c.04 0 .076-.024.089-.06l2.969-7.469c.004-.011.006-.023.006-.034a.1.1 0 0 0-.098-.096zM38.516.126h-2.439a.38.38 0 0 0-.381.381v7.375c0 .053.043.096.096.096h1.219c.053 0 .096-.043.096-.096V6.049a.19.19 0 0 1 .191-.191h1.217c1.633 0 2.916-1.283 2.916-2.867S40.149.126 38.516.126zm-.123 4.444h-1.095a.19.19 0 0 1-.191-.191V1.603a.19.19 0 0 1 .191-.19h1.095c.921 0 1.629.707 1.629 1.579s-.71 1.579-1.629 1.579zm32.476-.747c0-.053.043-.096.096-.096h1.131c.053 0 .096-.043.096-.096V2.612c0-.053-.043-.096-.096-.096h-1.261c-.053 0-.096-.043-.096-.096V1.152c0-.053-.043-.096-.096-.096h-1.091c-.053 0-.096.043-.096.096v5.166c0 1.332.647 1.792 1.493 1.792.538 0 .857-.164.991-.228.041-.019.062-.053.062-.1L72 6.956c0-.064-.06-.117-.14-.089-.172.064-.317.106-.493.106-.253 0-.502-.119-.502-.585V3.823h.004zM55.653 8.09c1.408 0 2.562-1.228 2.562-2.842s-1.153-2.842-2.562-2.842c-1.185 0-1.669.796-1.782 1.026-.023.045-.059.057-.089.057-.053 0-.096-.043-.096-.096V2.61c0-.053-.043-.096-.096-.096h-1.121c-.053 0-.096.043-.096.096v7.469c0 .053.043.096.096.096h1.221c.053 0 .096-.043.096-.096v-.366l-.102-2.618c0-.053.043-.096.096-.096s.079.04.087.055c.232.462.797 1.036 1.786 1.036zm-.345-1.313c-.825 0-1.493-.685-1.493-1.53s.668-1.53 1.493-1.53 1.493.685 1.493 1.53-.668 1.53-1.493 1.53zm6.439-4.395c-1.584 0-2.75 1.283-2.75 2.865s1.21 2.865 2.856 2.865c.891 0 1.572-.311 2.027-.675.04-.032.049-.089.019-.132l-.506-.7c-.03-.043-.091-.053-.134-.021-.225.145-.553.406-1.301.406-.63 0-1.191-.368-1.455-.947-.024-.055-.062-.136-.062-.172 0-.053.043-.096.096-.096h3.509c.153 0 .376-.106.389-.373.087-1.684-.853-3.02-2.688-3.02zm1.208 2.424h-2.462c-.053 0-.096-.043-.096-.096a1.01 1.01 0 0 1 .043-.17c.2-.621.704-.985 1.376-.985.568 0 .993.283 1.214.717a1.14 1.14 0 0 1 .115.34c0 .108-.085.194-.191.194z" fill="#0e2638"/></svg>