<svg xmlns="http://www.w3.org/2000/svg" width="24" height="24" viewBox="0 0 24 24" fill="none" xmlns:v="https://vecta.io/nano"><g clip-path="url(#D)"><g filter="url(#A)"><path d="M2.184 21.352l1.342-4.879c-.828-1.428-1.263-3.048-1.263-4.707.002-5.191 4.246-9.414 9.46-9.414a9.42 9.42 0 0 1 6.692 2.761c1.787 1.779 2.769 4.145 2.768 6.66-.002 5.191-4.246 9.415-9.46 9.415h-.004a9.49 9.49 0 0 1-4.521-1.146l-5.015 1.31z" fill="url(#B)"/></g><path d="M1.832 22l1.413-5.135a9.86 9.86 0 0 1-1.329-4.955C1.918 6.446 6.385 2 11.874 2c2.664.001 5.164 1.033 7.044 2.907a9.83 9.83 0 0 1 2.914 7.011c-.002 5.464-4.47 9.91-9.958 9.91h-.004c-1.666 0-3.304-.417-4.758-1.206L1.832 22zm5.524-3.172l.302.178c1.271.75 2.727 1.147 4.213 1.148h.003c4.562 0 8.275-3.695 8.277-8.237 0-2.201-.86-4.271-2.422-5.827a8.24 8.24 0 0 0-5.852-2.416c-4.565 0-8.278 3.695-8.28 8.236a8.19 8.19 0 0 0 1.265 4.383l.197.312-.837 3.04 3.133-.818z" fill="url(#C)"/><path fill-rule="evenodd" d="M9.424 7.837c-.184-.398-.378-.405-.554-.412l-.472-.005c-.164 0-.431.06-.656.299s-.861.816-.861 1.991.882 2.31 1.005 2.469 1.702 2.647 4.203 3.604c2.078.795 2.501.637 2.952.597s1.456-.577 1.661-1.135.205-1.035.143-1.135-.226-.159-.472-.279l-1.681-.777c-.226-.079-.389-.12-.554.12s-.635.777-.779.936-.287.18-.533.06-1.039-.371-1.979-1.185c-.731-.633-1.225-1.414-1.369-1.653s-.016-.368.108-.487c.11-.107.246-.279.369-.418s.164-.239.246-.398.041-.299-.02-.418-.54-1.301-.759-1.773z" fill="#fff"/></g><defs><filter id="A" x=".184" y=".352" width="23" height="23" filterUnits="userSpaceOnUse" color-interpolation-filters="sRGB"><feFlood flood-opacity="0" result="A"/><feColorMatrix in="SourceAlpha" values="0 0 0 0 0 0 0 0 0 0 0 0 0 0 0 0 0 0 127 0"/><feOffset/><feGaussianBlur stdDeviation="1"/><feColorMatrix values="0 0 0 0 0 0 0 0 0 0 0 0 0 0 0 0 0 0 0.2 0"/><feBlend in2="A"/><feBlend in="SourceGraphic"/></filter><linearGradient id="B" x1="11.684" y1="21.352" x2="11.684" y2="2.353" gradientUnits="userSpaceOnUse"><stop stop-color="#20b038"/><stop offset="1" stop-color="#60d66a"/></linearGradient><linearGradient id="C" x1="11.832" y1="22" x2="11.832" y2="2.001" gradientUnits="userSpaceOnUse"><stop stop-color="#f9f9f9"/><stop offset="1" stop-color="#fff"/></linearGradient><clipPath id="D"><path fill="#fff" d="M0 0h24v24H0z"/></clipPath></defs></svg>